<svg width="29" height="14" viewBox="0 0 29 14" fill="none" xmlns="http://www.w3.org/2000/svg">
<g opacity="0.7">
<path d="M17.3711 11L16.6582 9.01758H13.9287L13.2305 11H12L14.6709 3.83203H15.9404L18.6113 11H17.3711ZM16.3506 8.01172L15.6816 6.06836C15.6328 5.93815 15.5644 5.73307 15.4765 5.45312C15.3919 5.17318 15.3333 4.9681 15.3008 4.83789C15.2129 5.23828 15.0843 5.67611 14.915 6.15137L14.2705 8.01172H16.3506ZM18.9629 8.80762V7.83105H21.4726V8.80762H18.9629ZM25.0322 8.13867L23.2646 11H21.9316L23.9433 7.87012C23.0319 7.55436 22.5762 6.8903 22.5762 5.87793C22.5762 5.22363 22.8024 4.72396 23.2549 4.37891C23.7073 4.03385 24.373 3.86133 25.2519 3.86133H27.3955V11H26.2236V8.13867H25.0322ZM26.2236 4.83789H25.2959C24.8043 4.83789 24.4267 4.92578 24.1631 5.10156C23.9027 5.27409 23.7724 5.55729 23.7724 5.95117C23.7724 6.33529 23.8994 6.63477 24.1533 6.84961C24.4072 7.06445 24.8011 7.17188 25.3349 7.17188H26.2236V4.83789Z" fill="#9873FF"/>
<g clip-path="url(#clip0_121_2395)">
<path d="M1.99997 7.00049L2.70497 7.70549L5.49997 4.91549L5.49997 11.0005H6.49997L6.49997 4.91549L9.28997 7.71049L9.99997 7.00049L5.99997 3.00049L1.99997 7.00049Z" fill="#9873FF"/>
</g>
</g>
<defs>
<clipPath id="clip0_121_2395">
<rect width="12" height="12" fill="white" transform="translate(12 13.0005) rotate(180)"/>
</clipPath>
</defs>
</svg>
